<svg width="512" height="512" xmlns="http://www.w3.org/2000/svg">

 <g>
  <title>background</title>
  <rect fill="none" id="canvas_background" height="402" width="582" y="-1" x="-1"/>
 </g>
 <g>
  <title>Layer 1</title>
  <g id="svg_1"/>
  <g id="svg_3">
   <path id="svg_4" d="m59.5,119.5c25,0 50,0 75,0c0,10 0,20 0,30c-15,0 -30,0 -45,0c0,15 0,30 0,45c-10,0 -20,0 -30,0c0,-25 0,-50 0,-75z" fill="#1996ae"/>
  </g>
  <g id="svg_5">
   <path id="svg_6" d="m376.5,119.5c25,0 50,0 75,0c0,25 0,50 0,75c-10,0 -20,0 -30,0c0,-15 0,-30 0,-45c-15,0 -30,0 -45,0c0,-10 0,-20 0,-30z" fill="#1996ae"/>
  </g>
  <g id="svg_7">
   <path id="svg_8" opacity="0.974" d="m187.5,174.5c13.667,0 27.333,0 41,0c0,30.667 0,61.333 0,92c5.667,0 11.333,0 17,0c0,10 0,20 0,30c-5.667,0 -11.333,0 -17,0c0.218,13.689 -0.115,27.355 -1,41c-10.249,0.319 -20.416,-0.014 -30.5,-1c0.462,-13.251 0.628,-26.584 0.5,-40c-26.342,0.333 -52.675,0 -79,-1c23.277,-40.225 46.277,-80.559 69,-121zm9,47c-7.929,15.022 -16.263,29.855 -25,44.5c8.66,0.5 17.327,0.666 26,0.5c0.329,-15.176 -0.004,-30.176 -1,-45z" fill="#1996ae"/>
  </g>
  <g id="svg_9">
   <path id="svg_10" opacity="0.963" d="m274.5,174.5c21.669,-0.167 43.336,0 65,0.5c30.31,6.979 48.477,25.812 54.5,56.5c6.451,29.741 1.118,57.074 -16,82c-10.501,12.165 -23.668,19.665 -39.5,22.5c-20.991,0.931 -41.991,1.431 -63,1.5c-0.862,-54.328 -1.195,-108.662 -1,-163zm31,31c0.705,33.662 1.038,67.329 1,101c38.795,4.704 58.461,-12.463 59,-51.5c-1.096,-39.254 -21.096,-55.754 -60,-49.5z" fill="#1996ae"/>
  </g>
  <g id="svg_11">
   <path id="svg_12" d="m59.5,316.5c10,0 20,0 30,0c0,15 0,30 0,45c15,0 30,0 45,0c0,10 0,20 0,30c-25,0 -50,0 -75,0c0,-25 0,-50 0,-75z" fill="#1996ae"/>
  </g>
  <g id="svg_13">
   <path id="svg_14" d="m421.5,316.5c10,0 20,0 30,0c0,25 0,50 0,75c-25,0 -50,0 -75,0c0,-10 0,-20 0,-30c15,0 30,0 45,0c0,-15 0,-30 0,-45z" fill="#1996ae"/>
  </g>
 </g>
</svg>